<svg width="896" height="896" viewBox="0 0 896 896" fill="none" xmlns="http://www.w3.org/2000/svg">
  <rect width="896" height="896" fill="#1A1A1A"/>
  <g opacity=".5">
    <rect x="247" y="137" width="402" height="54" rx="10" fill="white" fill-opacity=".06" stroke="white" stroke-opacity=".12"/>
    <rect x="247" y="207" width="402" height="54" rx="10" fill="white" fill-opacity=".04" stroke="white" stroke-opacity=".1"/>
    <rect x="247" y="277" width="402" height="54" rx="10" fill="white" fill-opacity=".05" stroke="white" stroke-opacity=".12"/>
    <rect x="247" y="347" width="402" height="54" rx="10" fill="white" fill-opacity=".03" stroke="white" stroke-opacity=".1" stroke-dasharray="8 8"/>
    <rect x="247" y="417" width="402" height="54" rx="10" fill="white" fill-opacity=".06" stroke="white" stroke-opacity=".12"/>
    <rect x="247" y="487" width="402" height="54" rx="10" fill="white" fill-opacity=".04" stroke="white" stroke-opacity=".1"/>
    <rect x="247" y="557" width="402" height="54" rx="10" fill="white" fill-opacity=".06" stroke="white" stroke-opacity=".12"/>
    <rect x="247" y="627" width="402" height="54" rx="10" fill="white" fill-opacity=".05" stroke="white" stroke-opacity=".12"/>
    <rect x="247" y="697" width="402" height="54" rx="10" fill="white" fill-opacity=".03" stroke="white" stroke-opacity=".1" stroke-dasharray="8 8"/>
  </g>
  <rect x="346" y="348" width="204" height="204" rx="46" fill="#0D9488"/>
  <path d="M394 407H502" stroke="#F8FAFC" stroke-width="16" stroke-linecap="round"/>
  <path d="M394 448H474" stroke="#F8FAFC" stroke-width="16" stroke-linecap="round"/>
  <path d="M394 489H446" stroke="#F8FAFC" stroke-width="16" stroke-linecap="round"/>
</svg>
