<svg width="1" height="1.28" viewBox="0 0 1 1.28" fill="none" xmlns="http://www.w3.org/2000/svg">
  <defs>
    <linearGradient id="fireGradient" x1="0" y1="0" x2="0" y2="1" gradientUnits="objectBoundingBox">
      <stop offset="0%" stop-color="#FF9404"/>
      <stop offset="100%" stop-color="#FF7545"/>
    </linearGradient>
  </defs>
  <path d="M0.559908 0.023765C0.564848 0.0301896 0.856583 0.40974 0.906588 0.47396C0.933897 0.509025 0.945662 0.536412 0.962252 0.576499C1.04695 0.781696 0.987212 1.01808 0.811861 1.1556C0.699958 1.24332 0.585073 1.27752 0.443697 1.26302C0.435278 1.26125 0.42605 1.25941 0.41733 1.25814C0.406677 1.25659 0.395479 1.25577 0.385103 1.25326C0.216444 1.21223 0.0723515 1.07537 0.0218219 0.909507C0.00102129 0.841127 0.00117719 0.772338 0.00131408 0.703453V0.375328C0.00130395 0.367495 0.000506618 0.358991 0.00033752 0.350913C-0.000998039 0.287108 -0.0020225 0.218727 0.0735797 0.197593C0.0883936 0.193394 0.104645 0.193464 0.119478 0.197593C0.140313 0.203471 0.174118 0.226257 0.204439 0.246421C0.220102 0.256838 0.23469 0.267079 0.246431 0.273765C0.253705 0.265088 0.262268 0.252342 0.269869 0.240562C0.273848 0.234394 0.278038 0.228118 0.281588 0.222984L0.291353 0.209312C0.313437 0.17801 0.335341 0.146051 0.359713 0.116538C0.36624 0.10863 0.372572 0.0999184 0.379244 0.0911478C0.407183 0.0544209 0.438229 0.013662 0.482759 0.00325722C0.506764 -0.00233754 0.532512 -0.00362864 0.559908 0.023765Z" fill="url(#fireGradient)"/>
  <path d="M0.489595 0.524742C0.465194 0.536861 0.445797 0.572801 0.428072 0.594078C0.41187 0.61352 0.396479 0.634662 0.38022 0.653648C0.307208 0.7388 0.258581 0.832289 0.310884 0.94271C0.343241 1.01098 0.43193 1.06829 0.50815 1.06087C0.622374 1.05735 0.717326 0.953918 0.711275 0.840171C0.705691 0.73931 0.62768 0.664675 0.56772 0.590171C0.54887 0.566596 0.527959 0.523549 0.497408 0.524742C0.49496 0.524857 0.492029 0.524445 0.489595 0.524742Z" fill="#FEC800"/>
</svg>
