<svg width="1360" height="850" viewBox="0 0 1360 850" fill="none" xmlns="http://www.w3.org/2000/svg">
  <rect width="1360" height="850" rx="36" fill="#F0FDFA"/>
  <rect x="160" y="86" width="1040" height="678" rx="28" fill="#FFFFFF" stroke="#CCFBF1"/>
  <text x="220" y="164" fill="#134E4A" font-family="Arial, sans-serif" font-size="34" font-weight="700">Rename review</text>
  <g font-family="Arial, sans-serif" font-size="24">
    <text x="252" y="234" fill="#6B7280" font-size="18" font-weight="700">Original</text>
    <text x="792" y="234" fill="#0D9488" font-size="18" font-weight="700">Suggestion</text>
    <rect x="220" y="262" width="920" height="76" rx="14" fill="#F9FAFB"/>
    <text x="252" y="310" fill="#6B7280">Frame 114</text>
    <path d="M630 299H708" stroke="#9CA3AF" stroke-width="3" stroke-linecap="round"/>
    <path d="M694 284L710 299L694 314" stroke="#9CA3AF" stroke-width="3" stroke-linecap="round" stroke-linejoin="round"/>
    <text x="792" y="310" fill="#0D9488" font-weight="700">product-card</text>
    <rect x="220" y="366" width="920" height="76" rx="14" fill="#F9FAFB"/>
    <text x="252" y="414" fill="#6B7280">Rectangle 47</text>
    <path d="M630 403H708" stroke="#9CA3AF" stroke-width="3" stroke-linecap="round"/>
    <path d="M694 388L710 403L694 418" stroke="#9CA3AF" stroke-width="3" stroke-linecap="round" stroke-linejoin="round"/>
    <text x="792" y="414" fill="#0D9488" font-weight="700">card-image</text>
    <rect x="220" y="470" width="920" height="76" rx="14" fill="#F9FAFB"/>
    <text x="252" y="518" fill="#6B7280">Group 12</text>
    <path d="M630 507H708" stroke="#9CA3AF" stroke-width="3" stroke-linecap="round"/>
    <path d="M694 492L710 507L694 522" stroke="#9CA3AF" stroke-width="3" stroke-linecap="round" stroke-linejoin="round"/>
    <text x="792" y="518" fill="#0D9488" font-weight="700">card-content</text>
  </g>
</svg>
