<svg width="58" height="46" viewBox="0 0 58 46" fill="none" xmlns="http://www.w3.org/2000/svg">
<g clip-path="url(#clip0_8469_1015)">
<path d="M22.8 0C15.2 3.6 9.6 8.4 6 14.4C2 20.8 0 28 0 36V46H22V24H12.6C13.1 18.8 17 14.2 24.4 10.2L22.8 0Z" fill="url(#paint0_linear_8469_1015)"/>
<path d="M56.4 0C48.8 3.6 43.2 8.4 39.6 14.4C35.6 20.8 33.6 28 33.6 36V46H55.6V24H46.2C46.7 18.8 50.6 14.2 58 10.2L56.4 0Z" fill="url(#paint1_linear_8469_1015)"/>
</g>
<defs>
<linearGradient id="paint0_linear_8469_1015" x1="1.5" y1="15" x2="58" y2="46" gradientUnits="userSpaceOnUse">
<stop stop-color="#EDC377"/>
<stop offset="1" stop-color="#823C34"/>
</linearGradient>
<linearGradient id="paint1_linear_8469_1015" x1="11" y1="3.5" x2="58" y2="46" gradientUnits="userSpaceOnUse">
<stop offset="0.260027" stop-color="#EDC377"/>
<stop offset="1" stop-color="#823C34"/>
</linearGradient>
<clipPath id="clip0_8469_1015">
<rect width="58" height="46" fill="white"/>
</clipPath>
</defs>
</svg>
