<svg width="48" height="48" viewBox="0 0 48 48" fill="none" xmlns="http://www.w3.org/2000/svg">
<g clip-path="url(#clip0_2_57)">
<path d="M9.1385 0.00189391H38.8692C40.0683 0.002146 41.2556 0.23857 42.3633 0.697668C43.471 1.15677 44.4774 1.82955 45.3251 2.6776C46.1728 3.52565 46.8452 4.53236 47.3038 5.64025C47.7624 6.74815 47.9984 7.93553 47.9981 9.1346V38.8653C47.9976 41.2877 47.035 43.6106 45.322 45.3233C43.6089 47.0359 41.2858 47.9981 38.8635 47.9981H9.1385C6.71549 47.9975 4.39187 47.0348 2.67855 45.3215C0.965223 43.6081 0.00246231 41.2845 0.00195333 38.8615V9.1346C0.00170083 7.93489 0.237883 6.74687 0.696995 5.63848C1.15611 4.53008 1.82915 3.52303 2.67766 2.67488C3.52616 1.82673 4.5335 1.15411 5.64209 0.695465C6.75068 0.236819 7.93878 0.00113712 9.1385 0.00189391Z" fill="#50C800"/>
<path d="M47.9981 31.0055V17.1212C47.4568 15.8046 46.6623 14.607 45.6597 13.5964C45.7528 12.0798 45.399 10.5693 44.6422 9.25176C44.5231 9.04893 44.3579 8.87699 44.16 8.74982C43.9621 8.62265 43.7371 8.54382 43.5031 8.51971C43.2691 8.49561 43.0327 8.52689 42.813 8.61103C42.5934 8.69518 42.3966 8.82983 42.2386 9.0041L40.6873 10.732H40.6585C40.8675 9.13604 40.5757 7.51461 39.8234 6.09169C39.3454 5.19128 38.3106 5.03194 37.5964 5.7634L30.1435 13.2969C30.0591 13.3756 29.9708 13.4601 29.8863 13.5445L29.8671 13.558C26.6283 16.4915 21.581 16.6144 18.4958 13.9189C18.3038 13.7077 18.1023 13.5061 17.8911 13.3103L10.4248 5.74996C9.71254 5.0185 8.67582 5.174 8.19778 6.07825C7.45122 7.4914 7.15827 9.10028 7.35881 10.6859H7.31657L5.78069 8.9849C5.62243 8.80831 5.42463 8.67166 5.20346 8.58612C4.98229 8.50058 4.74402 8.46858 4.50812 8.49273C4.27222 8.51689 4.04538 8.5965 3.84613 8.72508C3.64688 8.85366 3.48088 9.02756 3.36168 9.23256C2.61945 10.5238 2.26486 12.0014 2.34032 13.4889C1.35204 14.4664 0.558506 15.6228 0.00195312 16.8966V31.2148C0.851007 33.1557 2.24761 34.807 4.02075 35.9664C5.7939 37.1257 7.86663 37.7429 9.98515 37.7423H10.4632C12.5613 37.7423 14.6147 37.1357 16.376 35.9957C18.1374 34.8556 19.5316 33.2307 20.3907 31.3165C22.0264 31.3076 23.2123 31.3031 23.9482 31.3031C25.5417 31.3031 26.7838 31.3031 27.6746 31.3031C28.5322 33.2219 29.9268 34.8514 31.6901 35.9951C33.4534 37.1387 35.51 37.7475 37.6117 37.748H37.9496C40.1036 37.744 42.208 37.1013 43.9967 35.9011C45.7853 34.7009 47.1778 32.9972 47.9981 31.0055Z" fill="#8EE000"/>
<path d="M10.6494 14.2491C12.6581 14.2491 14.5846 15.047 16.0049 16.4674C17.4253 17.8878 18.2232 19.8142 18.2232 21.8229V26.3038C18.2232 28.3128 17.4252 30.2394 16.0046 31.66C14.5841 33.0805 12.6574 33.8786 10.6485 33.8786C8.63953 33.8786 6.71286 33.0805 5.29232 31.66C3.87178 30.2394 3.07373 28.3128 3.07373 26.3038V21.8229C3.07373 20.8281 3.2697 19.8431 3.65043 18.9241C4.03117 18.005 4.58923 17.17 5.29272 16.4667C5.99622 15.7634 6.83137 15.2056 7.75049 14.8251C8.66961 14.4446 9.65468 14.2488 10.6494 14.2491Z" fill="#F9F9F9"/>
<path d="M37.2585 14.2491C39.2671 14.2491 41.1936 15.047 42.6139 16.4674C44.0343 17.8878 44.8322 19.8142 44.8322 21.8229V26.3038C44.8322 28.3128 44.0342 30.2394 42.6136 31.66C41.1931 33.0805 39.2664 33.8786 37.2575 33.8786C35.2485 33.8786 33.3219 33.0805 31.9013 31.66C30.4808 30.2394 29.6827 28.3128 29.6827 26.3038V21.8229C29.6825 20.828 29.8783 19.8429 30.2589 18.9238C30.6396 18.0046 31.1976 17.1695 31.9012 16.4662C32.6047 15.7628 33.44 15.205 34.3592 14.8245C35.2784 14.4441 36.2636 14.2486 37.2585 14.2491Z" fill="#F9F9F9"/>
<path d="M11.8166 18.5975C12.2888 18.5975 12.7564 18.6905 13.1927 18.8713C13.629 19.052 14.0254 19.3168 14.3593 19.6507C14.6932 19.9847 14.9581 20.3811 15.1388 20.8173C15.3195 21.2536 15.4125 21.7212 15.4125 22.1934V26.0331C15.3908 26.9721 15.0025 27.8654 14.3307 28.5219C13.6589 29.1784 12.7569 29.5459 11.8176 29.5459C10.8783 29.5459 9.97626 29.1784 9.30444 28.5219C8.63263 27.8654 8.24436 26.9721 8.22266 26.0331V22.1934C8.22266 21.2401 8.60124 20.3257 9.27519 19.6514C9.94913 18.9771 10.8633 18.598 11.8166 18.5975Z" fill="#4B4B4B"/>
<path d="M24 27.3117C24.5404 27.3115 25.0756 27.4177 25.575 27.6243C26.0744 27.831 26.5282 28.134 26.9104 28.5161C27.2927 28.8981 27.5959 29.3518 27.8028 29.851C28.0096 30.3503 28.1161 30.8855 28.1161 31.4259V32.8562C28.0929 33.9322 27.6491 34.9564 26.8799 35.7091C26.1107 36.4619 25.0772 36.8835 24.0009 36.8835C22.9247 36.8835 21.8912 36.4619 21.122 35.7091C20.3528 34.9564 19.909 33.9322 19.8857 32.8562V31.4259C19.8857 30.3348 20.3192 29.2883 21.0908 28.5167C21.8623 27.7452 22.9088 27.3117 24 27.3117Z" fill="#F48000"/>
<path d="M18.321 31.8214C18.8125 29.197 21.245 27.3021 24.1574 27.3021C26.8048 27.3021 29.2008 29.2431 29.6827 31.8214V32.0326C29.6827 32.1958 29.627 32.263 29.4773 32.2438L24.1631 33.1903H23.8483L18.5284 32.2304C18.3786 32.2496 18.323 32.1843 18.323 32.0192L18.321 31.8214Z" fill="#FFC200"/>
<path d="M23.1304 28.2121C23.4083 28.1449 23.693 28.1101 23.9789 28.1085C24.2892 28.1081 24.5983 28.1474 24.8985 28.2256C25.1991 28.3031 25.4654 28.4783 25.6555 28.7236C25.8456 28.969 25.9487 29.2706 25.9487 29.581C25.9487 29.8269 25.851 30.0628 25.6771 30.2367C25.5032 30.4106 25.2673 30.5083 25.0214 30.5083H22.9864C22.7404 30.5083 22.5046 30.4106 22.3307 30.2367C22.1568 30.0628 22.0591 29.8269 22.0591 29.581C22.0579 29.2656 22.1629 28.9591 22.3573 28.7107C22.5516 28.4624 22.824 28.2868 23.1304 28.2121Z" fill="#FFE747"/>
<path d="M36.0951 18.5975C36.5673 18.5975 37.0349 18.6905 37.4711 18.8713C37.9074 19.052 38.3038 19.3168 38.6377 19.6507C38.9716 19.9847 39.2365 20.3811 39.4172 20.8173C39.5979 21.2536 39.6909 21.7212 39.6909 22.1934V26.0331C39.6692 26.9721 39.2809 27.8654 38.6091 28.5219C37.9373 29.1784 37.0353 29.5459 36.096 29.5459C35.1567 29.5459 34.2547 29.1784 33.5829 28.5219C32.9111 27.8654 32.5228 26.9721 32.5011 26.0331V22.1934C32.5016 21.2402 32.8804 20.3262 33.5542 19.652C34.228 18.9778 35.1419 18.5986 36.0951 18.5975Z" fill="#4B4B4B"/>
<path d="M8.7795 22.9576C9.23448 22.9545 9.67838 22.8168 10.0552 22.5618C10.4321 22.3069 10.7249 21.946 10.897 21.5248C11.069 21.1036 11.1124 20.6408 11.0218 20.1949C10.9312 19.7491 10.7106 19.34 10.3878 19.0193C10.065 18.6987 9.65444 18.4808 9.20797 18.3931C8.7615 18.3055 8.29907 18.352 7.879 18.5268C7.45892 18.7016 7.10002 18.9969 6.84755 19.3754C6.59507 19.7539 6.46034 20.1987 6.46033 20.6537C6.46337 21.2665 6.70918 21.853 7.14389 22.2848C7.5786 22.7167 8.16676 22.9586 8.7795 22.9576Z" fill="#F9F9F9"/>
<path d="M32.7027 22.9575C33.1576 22.9541 33.6013 22.8161 33.9779 22.5609C34.3545 22.3057 34.6471 21.9447 34.8188 21.5235C34.9905 21.1022 35.0337 20.6395 34.9428 20.1938C34.852 19.748 34.6312 19.3391 34.3084 19.0187C33.9855 18.6982 33.575 18.4805 33.1285 18.393C32.6821 18.3055 32.2198 18.3521 31.7998 18.527C31.3799 18.7019 31.0211 18.9971 30.7687 19.3756C30.5163 19.7541 30.3816 20.1988 30.3816 20.6537C30.3846 21.2668 30.6307 21.8536 31.0658 22.2855C31.501 22.7174 32.0896 22.9591 32.7027 22.9575Z" fill="#F9F9F9"/>
</g>
<defs>
<clipPath id="clip0_2_57">
<rect width="48" height="48" rx="16" fill="white"/>
</clipPath>
</defs>
</svg>
