<svg width="123" height="123" viewBox="0 0 123 123" fill="none" xmlns="http://www.w3.org/2000/svg">
<path d="M82.0039 43.5312C83.3984 53.7305 80.7188 65.1328 72.1875 71.0664C66.0898 75.3047 57.75 74.9219 52.8281 72.625C42.6836 67.8945 39.293 56.6016 40.0312 46.0469C41.207 29.3945 51.2148 22.0117 60.6211 22.1211C73.4453 22.0664 80.2539 30.8164 82.0039 43.5312ZM122.5 15.3125V107.188C122.5 115.637 115.637 122.5 107.188 122.5H15.3125C6.86328 122.5 0 115.637 0 107.188V15.3125C0 6.86328 6.86328 0 15.3125 0H107.188C115.637 0 122.5 6.86328 122.5 15.3125ZM90.2344 76.8906C90.2344 76.8906 90.207 67.5938 90.207 17.4727H82.2773V28.4922C82.0586 28.5742 81.9492 28.3555 81.8398 28.1641C79.2148 22.5039 72.0234 15.5039 61.0586 15.5859C46.8672 15.6953 37.2148 24.1172 33.5508 36.8594C32.375 40.9336 31.9648 45.0898 32.0469 49.3281C32.5117 70.6289 44.3789 81.5391 62.7813 80.8281C70.6836 80.5273 77.6836 76.1797 81.6484 68.4687C81.7852 68.1953 81.9492 67.9492 82.1133 67.6758C82.168 67.7031 82.2227 67.7031 82.2773 67.7305C82.3594 68.7695 82.332 76.125 82.3047 77.1641C82.25 81.2109 81.7578 85.2305 80.3359 89.0586C78.2031 94.8008 74.2383 98.5469 68.168 99.8594C63.3008 100.926 58.4336 100.898 53.6211 99.5312C47.7422 97.8633 43.6406 94.3359 42.3828 88.1016C42.3008 87.6641 42.0273 87.7461 41.7539 87.7461H34.4258C34.6445 90.6445 35.3008 93.2969 36.75 95.7305C43.3672 106.805 59.3633 108.992 71.8047 105.957C85.4492 102.594 90.207 90.9453 90.2344 76.8906Z" fill="url(#paint0_linear_8471_1023)"/>
<defs>
<linearGradient id="paint0_linear_8471_1023" x1="7" y1="6.5" x2="96.5" y2="97.5" gradientUnits="userSpaceOnUse">
<stop offset="0.223965" stop-color="#1D80A5"/>
<stop offset="0.795242" stop-color="#5B69DD"/>
</linearGradient>
</defs>
</svg>
