<svg xmlns="http://www.w3.org/2000/svg" viewBox="0 0 48 48" role="img" aria-label="Storybook">
  <rect x="10" y="5" width="28" height="38" rx="5" fill="#ff4785"/>
  <path d="M31 5l5 4V5h-5z" fill="#fff" opacity=".75"/>
  <path d="M18 31c1.8 2.4 4.5 3.5 8 3.5 4.4 0 7-2.1 7-5.3 0-3-2.2-4.2-6.2-5.2l-2.5-.6c-1.8-.4-2.6-.9-2.6-1.9 0-1.1 1-1.8 2.7-1.8 1.9 0 3.1.7 4.1 2.1l3.8-2.4c-1.6-2.6-4.2-4-7.8-4-4.1 0-6.8 2.2-6.8 5.3 0 2.8 1.9 4.2 5.8 5.1l2.8.7c1.9.4 2.7.9 2.7 2 0 1.2-1.1 1.9-3.1 1.9-2.2 0-3.8-.9-4.9-2.5L18 31z" fill="#fff"/>
</svg>
