<svg width="24" height="24" viewBox="0 0 24 24" fill="none" xmlns="http://www.w3.org/2000/svg">
<path d="M20.0306 5.03063L15.3103 9.75001H18C18.1989 9.75001 18.3897 9.82902 18.5303 9.96968C18.671 10.1103 18.75 10.3011 18.75 10.5C18.75 10.6989 18.671 10.8897 18.5303 11.0303C18.3897 11.171 18.1989 11.25 18 11.25H13.5C13.3011 11.25 13.1103 11.171 12.9697 11.0303C12.829 10.8897 12.75 10.6989 12.75 10.5V6.00001C12.75 5.80109 12.829 5.61033 12.9697 5.46968C13.1103 5.32902 13.3011 5.25001 13.5 5.25001C13.6989 5.25001 13.8897 5.32902 14.0303 5.46968C14.171 5.61033 14.25 5.80109 14.25 6.00001V8.68969L18.9694 3.96938C19.1101 3.82865 19.301 3.74959 19.5 3.74959C19.699 3.74959 19.8899 3.82865 20.0306 3.96938C20.1714 4.11011 20.2504 4.30098 20.2504 4.50001C20.2504 4.69903 20.1714 4.8899 20.0306 5.03063ZM10.5 12.75H6C5.80109 12.75 5.61032 12.829 5.46967 12.9697C5.32902 13.1103 5.25 13.3011 5.25 13.5C5.25 13.6989 5.32902 13.8897 5.46967 14.0303C5.61032 14.171 5.80109 14.25 6 14.25H8.68969L3.96937 18.9694C3.82864 19.1101 3.74958 19.301 3.74958 19.5C3.74958 19.699 3.82864 19.8899 3.96937 20.0306C4.1101 20.1714 4.30097 20.2504 4.5 20.2504C4.69902 20.2504 4.88989 20.1714 5.03062 20.0306L9.75 15.3103V18C9.75 18.1989 9.82902 18.3897 9.96967 18.5303C10.1103 18.671 10.3011 18.75 10.5 18.75C10.6989 18.75 10.8897 18.671 11.0303 18.5303C11.171 18.3897 11.25 18.1989 11.25 18V13.5C11.25 13.3011 11.171 13.1103 11.0303 12.9697C10.8897 12.829 10.6989 12.75 10.5 12.75Z" fill="black"/>
</svg>
